<mxfile host="Electron" modified="2024-01-10T05:17:15.527Z" agent="Mozilla/5.0 (X11; Linux x86_64) AppleWebKit/537.36 (KHTML, like Gecko) draw.io/21.6.5 Chrome/114.0.5735.243 Electron/25.3.1 Safari/537.36" etag="hi9UN2pJi6cOH5MazQ22" version="21.6.5" type="device">
  <diagram name="Page-1" id="ew7vi9b7o_5ddHdVxSJt">
    <mxGraphModel dx="-20" dy="507" grid="1" gridSize="10" guides="1" tooltips="1" connect="1" arrows="1" fold="1" page="1" pageScale="1" pageWidth="850" pageHeight="1100" math="0" shadow="0">
      <root>
        <mxCell id="0" />
        <mxCell id="1" parent="0" />
        <mxCell id="xeCAtR1du0Rj5a9RxSEJ-12" value="" style="edgeStyle=orthogonalEdgeStyle;shape=connector;curved=0;rounded=1;orthogonalLoop=1;jettySize=auto;html=1;labelBackgroundColor=default;strokeColor=#666666;strokeWidth=3;fontFamily=Helvetica;fontSize=11;fontColor=default;startArrow=none;startFill=0;endArrow=openThin;endFill=0;" edge="1" parent="1" source="xeCAtR1du0Rj5a9RxSEJ-13" target="xeCAtR1du0Rj5a9RxSEJ-19">
          <mxGeometry relative="1" as="geometry" />
        </mxCell>
        <mxCell id="xeCAtR1du0Rj5a9RxSEJ-13" value="Start" style="strokeWidth=3;html=1;shape=mxgraph.flowchart.start_2;whiteSpace=wrap;labelBackgroundColor=none;fillColor=#ffffff;strokeColor=#666666;fontColor=#666666;fontSize=12;fontStyle=0;rounded=1;arcSize=50;" vertex="1" parent="1">
          <mxGeometry x="980" y="50" width="50" height="50" as="geometry" />
        </mxCell>
        <mxCell id="xeCAtR1du0Rj5a9RxSEJ-14" style="edgeStyle=orthogonalEdgeStyle;shape=connector;curved=0;rounded=1;orthogonalLoop=1;jettySize=auto;html=1;labelBackgroundColor=default;strokeColor=#666666;strokeWidth=3;fontFamily=Helvetica;fontSize=11;fontColor=default;startArrow=none;startFill=0;endArrow=openThin;endFill=0;" edge="1" parent="1" source="xeCAtR1du0Rj5a9RxSEJ-15" target="xeCAtR1du0Rj5a9RxSEJ-27">
          <mxGeometry relative="1" as="geometry" />
        </mxCell>
        <mxCell id="xeCAtR1du0Rj5a9RxSEJ-15" value="Parse Locations" style="rounded=1;whiteSpace=wrap;html=1;absoluteArcSize=1;arcSize=50;strokeWidth=3;strokeColor=#666666;fontFamily=Helvetica;fontSize=12;fontColor=#666666;fillColor=#ffffff;fontStyle=0;labelBackgroundColor=none;" vertex="1" parent="1">
          <mxGeometry x="1380" y="55" width="125" height="40" as="geometry" />
        </mxCell>
        <mxCell id="xeCAtR1du0Rj5a9RxSEJ-16" value="" style="edgeStyle=orthogonalEdgeStyle;shape=connector;curved=0;rounded=1;orthogonalLoop=1;jettySize=auto;html=1;labelBackgroundColor=default;strokeColor=#666666;strokeWidth=3;fontFamily=Helvetica;fontSize=11;fontColor=default;startArrow=none;startFill=0;endArrow=openThin;endFill=0;" edge="1" parent="1" source="xeCAtR1du0Rj5a9RxSEJ-17" target="xeCAtR1du0Rj5a9RxSEJ-15">
          <mxGeometry relative="1" as="geometry" />
        </mxCell>
        <mxCell id="xeCAtR1du0Rj5a9RxSEJ-17" value="Parse Application Information" style="rounded=1;whiteSpace=wrap;html=1;absoluteArcSize=1;arcSize=50;strokeWidth=3;strokeColor=#666666;fontFamily=Helvetica;fontSize=12;fontColor=#666666;fillColor=#ffffff;fontStyle=0;labelBackgroundColor=none;" vertex="1" parent="1">
          <mxGeometry x="1210" y="55" width="140" height="40" as="geometry" />
        </mxCell>
        <mxCell id="xeCAtR1du0Rj5a9RxSEJ-18" value="" style="edgeStyle=orthogonalEdgeStyle;shape=connector;curved=0;rounded=1;orthogonalLoop=1;jettySize=auto;html=1;labelBackgroundColor=default;strokeColor=#666666;strokeWidth=3;fontFamily=Helvetica;fontSize=11;fontColor=default;startArrow=none;startFill=0;endArrow=openThin;endFill=0;" edge="1" parent="1" source="xeCAtR1du0Rj5a9RxSEJ-19" target="xeCAtR1du0Rj5a9RxSEJ-17">
          <mxGeometry relative="1" as="geometry" />
        </mxCell>
        <mxCell id="xeCAtR1du0Rj5a9RxSEJ-19" value="Load YAML file" style="rounded=1;whiteSpace=wrap;html=1;absoluteArcSize=1;arcSize=50;strokeWidth=3;strokeColor=#666666;fontFamily=Helvetica;fontSize=12;fontColor=#666666;fillColor=#ffffff;fontStyle=0;labelBackgroundColor=none;" vertex="1" parent="1">
          <mxGeometry x="1075" y="55" width="100" height="40" as="geometry" />
        </mxCell>
        <mxCell id="xeCAtR1du0Rj5a9RxSEJ-20" style="edgeStyle=orthogonalEdgeStyle;shape=connector;curved=0;rounded=1;orthogonalLoop=1;jettySize=auto;html=1;labelBackgroundColor=default;strokeColor=#666666;strokeWidth=3;fontFamily=Helvetica;fontSize=11;fontColor=default;startArrow=none;startFill=0;endArrow=openThin;endFill=0;" edge="1" parent="1" source="xeCAtR1du0Rj5a9RxSEJ-21" target="xeCAtR1du0Rj5a9RxSEJ-22">
          <mxGeometry relative="1" as="geometry" />
        </mxCell>
        <mxCell id="xeCAtR1du0Rj5a9RxSEJ-21" value="Report success or failure" style="rounded=1;whiteSpace=wrap;html=1;absoluteArcSize=1;arcSize=50;strokeWidth=3;strokeColor=#666666;fontFamily=Helvetica;fontSize=12;fontColor=#666666;fillColor=#ffffff;fontStyle=0;labelBackgroundColor=none;" vertex="1" parent="1">
          <mxGeometry x="1100" y="137" width="130" height="40" as="geometry" />
        </mxCell>
        <mxCell id="xeCAtR1du0Rj5a9RxSEJ-22" value="End" style="strokeWidth=3;html=1;shape=mxgraph.flowchart.start_2;whiteSpace=wrap;labelBackgroundColor=none;fillColor=#ffffff;strokeColor=#666666;fontColor=#666666;fontSize=12;fontStyle=0;rounded=1;arcSize=50;" vertex="1" parent="1">
          <mxGeometry x="980" y="132" width="50" height="50" as="geometry" />
        </mxCell>
        <mxCell id="xeCAtR1du0Rj5a9RxSEJ-23" style="edgeStyle=orthogonalEdgeStyle;shape=connector;curved=0;rounded=1;orthogonalLoop=1;jettySize=auto;html=1;labelBackgroundColor=default;strokeColor=#666666;strokeWidth=3;fontFamily=Helvetica;fontSize=11;fontColor=default;startArrow=none;startFill=0;endArrow=openThin;endFill=0;exitX=0;exitY=0.5;exitDx=0;exitDy=0;entryX=0.5;entryY=1;entryDx=0;entryDy=0;" edge="1" parent="1" source="xeCAtR1du0Rj5a9RxSEJ-24" target="xeCAtR1du0Rj5a9RxSEJ-21">
          <mxGeometry relative="1" as="geometry" />
        </mxCell>
        <mxCell id="xeCAtR1du0Rj5a9RxSEJ-24" value="Make POST request to&amp;nbsp;&lt;br&gt;the Bran instance with a serialized version of the application as the body" style="rounded=1;whiteSpace=wrap;html=1;absoluteArcSize=1;arcSize=50;strokeWidth=3;strokeColor=#666666;fontFamily=Helvetica;fontSize=12;fontColor=#666666;fillColor=#ffffff;fontStyle=0;labelBackgroundColor=none;" vertex="1" parent="1">
          <mxGeometry x="1232" y="177" width="150" height="80" as="geometry" />
        </mxCell>
        <mxCell id="xeCAtR1du0Rj5a9RxSEJ-25" style="edgeStyle=orthogonalEdgeStyle;shape=connector;curved=0;rounded=1;orthogonalLoop=1;jettySize=auto;html=1;labelBackgroundColor=default;strokeColor=#666666;strokeWidth=3;fontFamily=Helvetica;fontSize=11;fontColor=default;startArrow=none;startFill=0;endArrow=openThin;endFill=0;exitX=0.5;exitY=1;exitDx=0;exitDy=0;entryX=1;entryY=0.5;entryDx=0;entryDy=0;" edge="1" parent="1" source="xeCAtR1du0Rj5a9RxSEJ-27" target="xeCAtR1du0Rj5a9RxSEJ-24">
          <mxGeometry relative="1" as="geometry">
            <mxPoint x="1390" y="217" as="targetPoint" />
            <Array as="points">
              <mxPoint x="1443" y="217" />
            </Array>
          </mxGeometry>
        </mxCell>
        <mxCell id="xeCAtR1du0Rj5a9RxSEJ-26" style="edgeStyle=orthogonalEdgeStyle;shape=connector;curved=0;rounded=1;orthogonalLoop=1;jettySize=auto;html=1;exitX=0;exitY=0.5;exitDx=0;exitDy=0;labelBackgroundColor=default;strokeColor=#666666;strokeWidth=3;fontFamily=Helvetica;fontSize=11;fontColor=default;startArrow=none;startFill=0;endArrow=openThin;endFill=0;" edge="1" parent="1" source="xeCAtR1du0Rj5a9RxSEJ-27" target="xeCAtR1du0Rj5a9RxSEJ-21">
          <mxGeometry relative="1" as="geometry" />
        </mxCell>
        <mxCell id="xeCAtR1du0Rj5a9RxSEJ-27" value="Was Bran&#39;s URL&lt;br style=&quot;font-size: 11px;&quot;&gt;passed as &lt;br&gt;an arg?" style="rhombus;whiteSpace=wrap;html=1;rounded=0;labelBackgroundColor=none;strokeColor=#666666;strokeWidth=3;fontFamily=Helvetica;fontSize=11;fontColor=#666666;fillColor=#ffffff;spacingTop=7;" vertex="1" parent="1">
          <mxGeometry x="1376.015" y="116.5" width="132.97" height="81" as="geometry" />
        </mxCell>
        <mxCell id="xeCAtR1du0Rj5a9RxSEJ-28" value="Yes" style="text;html=1;strokeColor=none;fillColor=none;align=center;verticalAlign=middle;whiteSpace=wrap;rounded=0;fontSize=11;fontFamily=Helvetica;fontColor=#666666;" vertex="1" parent="1">
          <mxGeometry x="1431" y="188" width="60" height="30" as="geometry" />
        </mxCell>
        <mxCell id="xeCAtR1du0Rj5a9RxSEJ-29" value="No" style="text;html=1;strokeColor=none;fillColor=none;align=center;verticalAlign=middle;whiteSpace=wrap;rounded=0;fontSize=11;fontFamily=Helvetica;fontColor=#666666;" vertex="1" parent="1">
          <mxGeometry x="1340" y="132" width="60" height="30" as="geometry" />
        </mxCell>
      </root>
    </mxGraphModel>
  </diagram>
</mxfile>
